<svg width="78" height="82" viewBox="0 0 78 82" fill="none" xmlns="http://www.w3.org/2000/svg">
<g clip-path="url(#clip0_2_13)">
<circle cx="36.5" cy="41.5" r="33" fill="#61B361" stroke="black" stroke-width="3"/>
<path d="M25.0245 56.6747L23.3891 58.6215C18.4156 54.7036 15.2119 48.5583 15.2119 41.6492C15.2119 36.7254 16.8389 32.1896 19.574 28.5714L25.8422 26.0672L35.6548 27.1802L24.2068 24.0642C27.6064 21.6435 31.7408 20.2239 36.2 20.2239C44.6793 20.2239 51.9841 25.357 55.2954 32.7452L45.8655 35.8059C46.0407 34.2292 45.1792 31.5765 41.924 32.4669C38.593 33.3781 40.5688 37.0862 41.5154 37.9434C41.8035 37.8769 41.9596 37.8961 41.924 38.0319C41.8842 38.1833 41.7251 38.1334 41.5154 37.9434C40.3867 38.204 37.233 39.78 35.6548 40.8144L42.7417 39.1449L51.3887 39.7014L56.7343 37.1972C57.0316 38.6334 57.188 40.1226 57.188 41.6492C57.188 53.482 47.7913 63.0745 36.2 63.0745C33.0879 63.0745 30.5715 62.3673 27.9152 61.1267L34.8192 55.2835L25.0245 56.6747Z" fill="black"/>
<mask id="path-3-inside-1_2_13" fill="white">
<path d="M36.2061 20C44.7429 20.0001 52.0967 25.1103 55.459 32.4678C55.5182 32.5974 55.5192 32.7465 55.4619 32.877C55.4045 33.0072 55.2945 33.1073 55.1592 33.1514L45.8955 36.1611C45.633 36.2462 45.3509 36.1023 45.2656 35.8398C45.1914 35.6108 45.291 35.3661 45.4922 35.251C45.3335 33.5299 44.2348 32.5968 43.0166 32.5967C41.6441 32.5969 40.5196 33.7264 40.5195 35.1338C40.5196 35.5051 40.6764 35.887 40.9502 36.2588C41.223 36.6292 41.5893 36.9585 41.9443 37.2119L41.8076 37.4023L42.1436 38.0801L39.4248 39.4229L42.8994 38.5596L42.9766 38.5469C43.0023 38.5446 43.0288 38.5441 43.0547 38.5459L51.1572 39.1016L56.3398 36.6152L56.4473 36.5781C56.5576 36.5535 56.6749 36.5671 56.7783 36.6182C56.916 36.6863 57.0146 36.8144 57.0459 36.9648C57.3562 38.4559 57.5195 40.0026 57.5195 41.5879C57.5195 53.7121 47.9694 63.5661 36.1582 63.5664C33.2007 63.5664 30.3815 62.9477 27.8193 61.8291L28.0195 61.3711L28.0459 61.3086C27.8966 61.3124 27.7473 61.2523 27.6455 61.1279C27.4707 60.9143 27.5023 60.5997 27.7158 60.4248L33.418 55.7559L25.5635 56.8623L23.8799 58.8252C23.7053 59.0286 23.4009 59.0586 23.1904 58.8926C18.2 54.9545 15.0001 48.3649 15 41.4844C15 36.5993 16.6099 32.0923 19.3223 28.4824C19.3745 28.413 19.4446 28.3586 19.5244 28.3242L25.9277 25.5625L26.0439 25.5283C26.0837 25.5218 26.1245 25.5202 26.165 25.5234L29.376 25.7803L24.3818 24.667C24.1884 24.6238 24.0385 24.4708 24 24.2764C23.9616 24.0817 24.0423 23.882 24.2051 23.7686C27.6173 21.3916 31.752 20 36.2061 20ZM36.2061 21C32.3823 21 28.8084 22.0786 25.7598 23.9492L36.5869 26.3623C36.8432 26.4195 37.0117 26.6652 36.9727 26.9248C36.9335 27.1844 36.7002 27.3695 36.4385 27.3486L26.209 26.5303L20.0439 29.1885C17.5052 32.6125 16 36.8694 16 41.4844C16.0001 47.897 18.91 54.0326 23.4385 57.8047L24.9287 56.0684L24.9932 56.0049C25.0632 55.9482 25.1479 55.9112 25.2383 55.8984L35.0459 54.5176C35.2679 54.4864 35.4843 54.6072 35.5742 54.8125C35.6641 55.0178 35.606 55.2584 35.4326 55.4004L28.5361 61.0449C30.8901 62.0248 33.4624 62.5664 36.1582 62.5664C47.3898 62.5661 56.5195 53.1875 56.5195 41.5879C56.5195 40.2934 56.4051 39.0268 56.1875 37.7979L51.4717 40.0605C51.3938 40.0978 51.3068 40.1143 51.2207 40.1084L43.0635 39.5488L35.1807 41.5078C34.933 41.5691 34.6777 41.4348 34.5898 41.1953C34.5021 40.9557 34.6093 40.6875 34.8379 40.5742L40.8418 37.6064C40.5941 37.3848 40.3521 37.1321 40.1455 36.8516C39.7948 36.3754 39.5196 35.7893 39.5195 35.1338C39.5196 33.1867 41.0792 31.5969 43.0166 31.5967C44.7929 31.5968 46.1803 32.9242 46.4609 34.9258L54.3066 32.376C50.9977 25.6307 44.1339 21.0001 36.2061 21Z"/>
</mask>
<path d="M36.2061 20C44.7429 20.0001 52.0967 25.1103 55.459 32.4678C55.5182 32.5974 55.5192 32.7465 55.4619 32.877C55.4045 33.0072 55.2945 33.1073 55.1592 33.1514L45.8955 36.1611C45.633 36.2462 45.3509 36.1023 45.2656 35.8398C45.1914 35.6108 45.291 35.3661 45.4922 35.251C45.3335 33.5299 44.2348 32.5968 43.0166 32.5967C41.6441 32.5969 40.5196 33.7264 40.5195 35.1338C40.5196 35.5051 40.6764 35.887 40.9502 36.2588C41.223 36.6292 41.5893 36.9585 41.9443 37.2119L41.8076 37.4023L42.1436 38.0801L39.4248 39.4229L42.8994 38.5596L42.9766 38.5469C43.0023 38.5446 43.0288 38.5441 43.0547 38.5459L51.1572 39.1016L56.3398 36.6152L56.4473 36.5781C56.5576 36.5535 56.6749 36.5671 56.7783 36.6182C56.916 36.6863 57.0146 36.8144 57.0459 36.9648C57.3562 38.4559 57.5195 40.0026 57.5195 41.5879C57.5195 53.7121 47.9694 63.5661 36.1582 63.5664C33.2007 63.5664 30.3815 62.9477 27.8193 61.8291L28.0195 61.3711L28.0459 61.3086C27.8966 61.3124 27.7473 61.2523 27.6455 61.1279C27.4707 60.9143 27.5023 60.5997 27.7158 60.4248L33.418 55.7559L25.5635 56.8623L23.8799 58.8252C23.7053 59.0286 23.4009 59.0586 23.1904 58.8926C18.2 54.9545 15.0001 48.3649 15 41.4844C15 36.5993 16.6099 32.0923 19.3223 28.4824C19.3745 28.413 19.4446 28.3586 19.5244 28.3242L25.9277 25.5625L26.0439 25.5283C26.0837 25.5218 26.1245 25.5202 26.165 25.5234L29.376 25.7803L24.3818 24.667C24.1884 24.6238 24.0385 24.4708 24 24.2764C23.9616 24.0817 24.0423 23.882 24.2051 23.7686C27.6173 21.3916 31.752 20 36.2061 20ZM36.2061 21C32.3823 21 28.8084 22.0786 25.7598 23.9492L36.5869 26.3623C36.8432 26.4195 37.0117 26.6652 36.9727 26.9248C36.9335 27.1844 36.7002 27.3695 36.4385 27.3486L26.209 26.5303L20.0439 29.1885C17.5052 32.6125 16 36.8694 16 41.4844C16.0001 47.897 18.91 54.0326 23.4385 57.8047L24.9287 56.0684L24.9932 56.0049C25.0632 55.9482 25.1479 55.9112 25.2383 55.8984L35.0459 54.5176C35.2679 54.4864 35.4843 54.6072 35.5742 54.8125C35.6641 55.0178 35.606 55.2584 35.4326 55.4004L28.5361 61.0449C30.8901 62.0248 33.4624 62.5664 36.1582 62.5664C47.3898 62.5661 56.5195 53.1875 56.5195 41.5879C56.5195 40.2934 56.4051 39.0268 56.1875 37.7979L51.4717 40.0605C51.3938 40.0978 51.3068 40.1143 51.2207 40.1084L43.0635 39.5488L35.1807 41.5078C34.933 41.5691 34.6777 41.4348 34.5898 41.1953C34.5021 40.9557 34.6093 40.6875 34.8379 40.5742L40.8418 37.6064C40.5941 37.3848 40.3521 37.1321 40.1455 36.8516C39.7948 36.3754 39.5196 35.7893 39.5195 35.1338C39.5196 33.1867 41.0792 31.5969 43.0166 31.5967C44.7929 31.5968 46.1803 32.9242 46.4609 34.9258L54.3066 32.376C50.9977 25.6307 44.1339 21.0001 36.2061 21Z" fill="black"/>
<path d="M36.2061 20L36.2061 16H36.2061V20ZM55.459 32.4678L59.0972 30.8054L59.0971 30.8052L55.459 32.4678ZM55.4619 32.877L59.1225 34.4894L59.1242 34.4855L55.4619 32.877ZM55.1592 33.1514L56.3952 36.9556L56.3964 36.9552L55.1592 33.1514ZM45.8955 36.1611L47.1292 39.9661L47.1315 39.9654L45.8955 36.1611ZM45.2656 35.8398L41.4603 37.0725L41.4615 37.0763L45.2656 35.8398ZM45.4922 35.251L47.4787 38.7228L49.7114 37.4453L49.4753 34.8838L45.4922 35.251ZM43.0166 32.5967L43.0169 28.5967H43.016L43.0166 32.5967ZM40.5195 35.1338L36.5195 35.1337V35.1347L40.5195 35.1338ZM40.9502 36.2588L37.7293 38.6307L37.7295 38.631L40.9502 36.2588ZM41.9443 37.2119L45.1936 39.5447L47.5329 36.2864L44.2681 33.9562L41.9443 37.2119ZM41.8076 37.4023L38.5583 35.0695L37.1554 37.0235L38.2237 39.1788L41.8076 37.4023ZM42.1436 38.0801L43.9149 41.6665L47.5064 39.8927L45.7274 36.3036L42.1436 38.0801ZM39.4248 39.4229L37.6535 35.8364L40.3893 43.3048L39.4248 39.4229ZM42.8994 38.5596L42.2499 34.6127L42.0911 34.6388L41.9349 34.6776L42.8994 38.5596ZM42.9766 38.5469L42.6275 34.5621L42.4766 34.5754L42.3271 34.6L42.9766 38.5469ZM43.0547 38.5459L43.3284 34.5553L43.3251 34.5551L43.0547 38.5459ZM51.1572 39.1016L50.8836 43.0922L51.9361 43.1644L52.8874 42.708L51.1572 39.1016ZM56.3398 36.6152L55.0338 32.8345L54.8167 32.9095L54.6097 33.0088L56.3398 36.6152ZM56.4473 36.5781L55.5748 32.6744L55.3545 32.7237L55.1412 32.7974L56.4473 36.5781ZM56.7783 36.6182L58.553 33.0334L58.5488 33.0313L56.7783 36.6182ZM57.0459 36.9648L60.962 36.1499L60.962 36.1498L57.0459 36.9648ZM57.5195 41.5879L61.5195 41.5879V41.5878L57.5195 41.5879ZM36.1582 63.5664L36.1581 67.5664H36.1583L36.1582 63.5664ZM27.8193 61.8291L24.1542 60.2271L22.5514 63.8938L26.2188 65.4949L27.8193 61.8291ZM28.0195 61.3711L31.6847 62.9731L31.695 62.9496L31.705 62.9259L28.0195 61.3711ZM28.0459 61.3086L31.7314 62.8634L34.1417 57.15L27.9427 57.3099L28.0459 61.3086ZM27.6455 61.1279L24.55 63.6612L24.5505 63.6619L27.6455 61.1279ZM27.7158 60.4248L25.1817 57.3299L25.1807 57.3307L27.7158 60.4248ZM33.418 55.7559L35.9521 58.8507L47.0023 49.8028L32.86 51.795L33.418 55.7559ZM25.5635 56.8623L25.0055 52.9014L23.5103 53.112L22.5273 54.2581L25.5635 56.8623ZM23.8799 58.8252L26.9152 61.4304L26.9161 61.4294L23.8799 58.8252ZM23.1904 58.8926L20.7125 62.0326L20.7135 62.0334L23.1904 58.8926ZM15 41.4844L11 41.4844V41.4845L15 41.4844ZM19.3223 28.4824L16.126 26.0775L16.1244 26.0796L19.3223 28.4824ZM19.5244 28.3242L21.1082 31.9973L21.1085 31.9972L19.5244 28.3242ZM25.9277 25.5625L24.7991 21.725L24.5664 21.7935L24.3436 21.8896L25.9277 25.5625ZM26.0439 25.5283L25.3942 21.5814L25.1514 21.6214L24.9153 21.6909L26.0439 25.5283ZM26.165 25.5234L26.484 21.5362L26.4824 21.536L26.165 25.5234ZM29.376 25.7803L29.057 29.7675L30.2463 21.8761L29.376 25.7803ZM24.3818 24.667L23.5106 28.571L23.5115 28.5712L24.3818 24.667ZM24 24.2764L20.0755 25.0499L20.0761 25.053L24 24.2764ZM24.2051 23.7686L21.9187 20.4864L21.9187 20.4864L24.2051 23.7686ZM36.2061 21L36.2061 17H36.2061V21ZM25.7598 23.9492L23.6678 20.5399L15.25 25.705L24.8896 27.8534L25.7598 23.9492ZM36.5869 26.3623L37.4577 22.4582L37.4571 22.4581L36.5869 26.3623ZM36.9727 26.9248L40.928 27.5207L40.9281 27.5199L36.9727 26.9248ZM36.4385 27.3486L36.1195 31.3359L36.121 31.336L36.4385 27.3486ZM26.209 26.5303L26.528 22.543L25.5376 22.4638L24.6252 22.8572L26.209 26.5303ZM20.0439 29.1885L18.4602 25.5154L17.4719 25.9415L16.8308 26.8061L20.0439 29.1885ZM16 41.4844L12 41.4844V41.4845L16 41.4844ZM23.4385 57.8047L20.8784 60.8781L23.9068 63.4007L26.4738 60.4098L23.4385 57.8047ZM24.9287 56.0684L22.122 53.2184L22.0025 53.336L21.8934 53.4632L24.9287 56.0684ZM24.9932 56.0049L22.4761 52.8961L22.325 53.0185L22.1864 53.1549L24.9932 56.0049ZM25.2383 55.8984L24.6806 51.9375L24.6804 51.9375L25.2383 55.8984ZM35.0459 54.5176L34.4893 50.5565L34.4882 50.5566L35.0459 54.5176ZM35.5742 54.8125L39.2387 53.2088L39.2381 53.2075L35.5742 54.8125ZM35.4326 55.4004L37.9661 58.4958L37.9668 58.4952L35.4326 55.4004ZM28.5361 61.0449L26.0027 57.9495L20.8407 62.1744L26.999 64.7378L28.5361 61.0449ZM36.1582 62.5664L36.1581 66.5664H36.1583L36.1582 62.5664ZM56.5195 41.5879L60.5195 41.5879V41.5878L56.5195 41.5879ZM56.1875 37.7979L60.1262 37.1003L59.2074 31.9123L54.4571 34.1915L56.1875 37.7979ZM51.4717 40.0605L53.199 43.6684L53.202 43.6669L51.4717 40.0605ZM51.2207 40.1084L51.4946 36.1178L51.4945 36.1178L51.2207 40.1084ZM43.0635 39.5488L43.3372 35.5582L42.7094 35.5151L42.0988 35.6669L43.0635 39.5488ZM35.1807 41.5078L36.1422 45.3905L36.1454 45.3897L35.1807 41.5078ZM34.5898 41.1953L30.8341 42.5716L30.8346 42.5729L34.5898 41.1953ZM34.8379 40.5742L33.0654 36.9884L33.0622 36.99L34.8379 40.5742ZM40.8418 37.6064L42.6143 41.1923L47.9173 38.571L43.5094 34.6259L40.8418 37.6064ZM40.1455 36.8516L36.9247 39.2236L36.9248 39.2238L40.1455 36.8516ZM39.5195 35.1338L35.5195 35.1337V35.1343L39.5195 35.1338ZM43.0166 31.5967L43.0168 27.5967H43.0162L43.0166 31.5967ZM46.4609 34.9258L42.4997 35.4811L43.1618 40.2039L47.6973 38.7299L46.4609 34.9258ZM54.3066 32.376L55.543 36.1801L59.9289 34.7547L57.8978 30.6143L54.3066 32.376ZM36.2061 20L36.206 24C43.0972 24.0001 49.0754 28.1226 51.8209 34.1304L55.459 32.4678L59.0971 30.8052C55.118 22.098 46.3886 16.0002 36.2061 16L36.2061 20ZM55.459 32.4678L51.8208 34.1301C51.4054 33.221 51.3992 32.1801 51.7996 31.2684L55.4619 32.877L59.1242 34.4855C59.6393 33.3128 59.631 31.9738 59.0972 30.8054L55.459 32.4678ZM55.4619 32.877L51.8013 31.2645C52.1988 30.3621 52.9647 29.6589 53.9219 29.3475L55.1592 33.1514L56.3964 36.9552C57.6244 36.5558 58.6102 35.6523 59.1225 34.4894L55.4619 32.877ZM55.1592 33.1514L53.9232 29.3471L44.6595 32.3569L45.8955 36.1611L47.1315 39.9654L56.3952 36.9556L55.1592 33.1514ZM45.8955 36.1611L44.6618 32.3561C46.5012 31.7598 48.473 32.7675 49.0697 34.6034L45.2656 35.8398L41.4615 37.0763C42.2289 39.4371 44.7648 40.7327 47.1292 39.9661L45.8955 36.1611ZM45.2656 35.8398L49.071 34.6072C49.5887 36.2057 48.8963 37.9117 47.4787 38.7228L45.4922 35.251L43.5056 31.7792C41.6858 32.8205 40.7941 35.0158 41.4603 37.0725L45.2656 35.8398ZM45.4922 35.251L49.4753 34.8838C49.1594 31.4569 46.6375 28.5969 43.0169 28.5967L43.0166 32.5967L43.0163 36.5967C42.5724 36.5966 42.129 36.4137 41.8181 36.1017C41.5115 35.7939 41.5019 35.5401 41.5091 35.6182L45.4922 35.251ZM43.0166 32.5967L43.016 28.5967C39.3886 28.5972 36.5196 31.5637 36.5195 35.1337L40.5195 35.1338L44.5195 35.1338C44.5195 35.8891 43.8995 36.5965 43.0172 36.5967L43.0166 32.5967ZM40.5195 35.1338L36.5195 35.1347C36.5199 36.6383 37.1449 37.8372 37.7293 38.6307L40.9502 36.2588L44.1711 33.8869C44.2079 33.9368 44.5194 34.3718 44.5195 35.1329L40.5195 35.1338ZM40.9502 36.2588L37.7295 38.631C38.3184 39.4305 39.0253 40.0428 39.6205 40.4677L41.9443 37.2119L44.2681 33.9562C44.2246 33.9251 44.1866 33.8934 44.1602 33.8686C44.1481 33.8572 44.1428 33.8513 44.1434 33.852C44.144 33.8526 44.154 33.8637 44.1709 33.8866L40.9502 36.2588ZM41.9443 37.2119L38.695 34.8791L38.5583 35.0695L41.8076 37.4023L45.0569 39.7352L45.1936 39.5447L41.9443 37.2119ZM41.8076 37.4023L38.2237 39.1788L38.5597 39.8565L42.1436 38.0801L45.7274 36.3036L45.3915 35.6259L41.8076 37.4023ZM42.1436 38.0801L40.3722 34.4937L37.6535 35.8364L39.4248 39.4229L41.1961 43.0093L43.9149 41.6665L42.1436 38.0801ZM39.4248 39.4229L40.3893 43.3048L43.8639 42.4415L42.8994 38.5596L41.9349 34.6776L38.4603 35.5409L39.4248 39.4229ZM42.8994 38.5596L43.5489 42.5065L43.6261 42.4938L42.9766 38.5469L42.3271 34.6L42.2499 34.6127L42.8994 38.5596ZM42.9766 38.5469L43.3256 42.5316C43.1672 42.5455 42.9856 42.5504 42.7842 42.5367L43.0547 38.5459L43.3251 34.5551C43.0721 34.5379 42.8374 34.5437 42.6275 34.5621L42.9766 38.5469ZM43.0547 38.5459L42.781 42.5365L50.8836 43.0922L51.1572 39.1016L51.4309 35.1109L43.3284 34.5553L43.0547 38.5459ZM51.1572 39.1016L52.8874 42.708L58.07 40.2217L56.3398 36.6152L54.6097 33.0088L49.4271 35.4951L51.1572 39.1016ZM56.3398 36.6152L57.6459 40.396L57.7533 40.3589L56.4473 36.5781L55.1412 32.7974L55.0338 32.8345L56.3398 36.6152ZM56.4473 36.5781L57.3197 40.4818C56.5394 40.6562 55.724 40.5585 55.0078 40.205L56.7783 36.6182L58.5488 33.0313C57.6259 32.5758 56.5758 32.4507 55.5748 32.6744L56.4473 36.5781ZM56.7783 36.6182L55.0036 40.2029C54.0336 39.7227 53.3475 38.8257 53.1298 37.7799L57.0459 36.9648L60.962 36.1498C60.6817 34.8032 59.7984 33.65 58.553 33.0334L56.7783 36.6182ZM57.0459 36.9648L53.1298 37.7798C53.3846 39.0042 53.5195 40.2779 53.5195 41.5879L57.5195 41.5879L61.5195 41.5878C61.5195 39.7272 61.3278 37.9075 60.962 36.1499L57.0459 36.9648ZM57.5195 41.5879L53.5195 41.5879C53.5195 51.6145 45.6503 59.5662 36.1581 59.5664L36.1582 63.5664L36.1583 67.5664C50.2884 67.5661 61.5195 55.8098 61.5195 41.5879L57.5195 41.5879ZM36.1582 63.5664L36.1583 59.5664C33.7637 59.5664 31.4885 59.0664 29.4198 58.1633L27.8193 61.8291L26.2188 65.4949C29.2745 66.829 32.6376 67.5663 36.1581 67.5664L36.1582 63.5664ZM27.8193 61.8291L31.4845 63.4311L31.6847 62.9731L28.0195 61.3711L24.3544 59.769L24.1542 60.2271L27.8193 61.8291ZM28.0195 61.3711L31.705 62.9259L31.7314 62.8634L28.0459 61.3086L24.3604 59.7538L24.3341 59.8163L28.0195 61.3711ZM28.0459 61.3086L27.9427 57.3099C28.9286 57.2845 29.9984 57.6876 30.7405 58.5939L27.6455 61.1279L24.5505 63.6619C25.4962 64.817 26.8647 65.3404 28.149 65.3073L28.0459 61.3086ZM27.6455 61.1279L30.7411 58.5946C31.9675 60.0933 31.7422 62.297 30.2509 63.5189L27.7158 60.4248L25.1807 57.3307C23.2625 58.9024 22.9739 61.7353 24.55 63.6612L27.6455 61.1279ZM27.7158 60.4248L30.2499 63.5197L35.9521 58.8507L33.418 55.7559L30.8839 52.661L25.1817 57.3299L27.7158 60.4248ZM33.418 55.7559L32.86 51.795L25.0055 52.9014L25.5635 56.8623L26.1214 60.8232L33.9759 59.7168L33.418 55.7559ZM25.5635 56.8623L22.5273 54.2581L20.8437 56.221L23.8799 58.8252L26.9161 61.4294L28.5996 59.4665L25.5635 56.8623ZM23.8799 58.8252L20.8446 56.22C22.0631 54.8003 24.1896 54.5864 25.6673 55.7517L23.1904 58.8926L20.7135 62.0334C22.6122 63.5308 25.3475 63.257 26.9152 61.4304L23.8799 58.8252ZM23.1904 58.8926L25.6683 55.7525C21.677 52.6028 19.0001 47.1894 19 41.4843L15 41.4844L11 41.4845C11.0002 49.5403 14.723 57.3061 20.7125 62.0326L23.1904 58.8926ZM15 41.4844L19 41.4844C19 37.491 20.3132 33.8225 22.5202 30.8852L19.3223 28.4824L16.1244 26.0796C12.9066 30.3621 11 35.7075 11 41.4844L15 41.4844ZM19.3223 28.4824L22.5186 30.8874C22.141 31.3891 21.6489 31.7642 21.1082 31.9973L19.5244 28.3242L17.9406 24.6511C17.2402 24.9531 16.608 25.4368 16.126 26.0775L19.3223 28.4824ZM19.5244 28.3242L21.1085 31.9972L27.5119 29.2354L25.9277 25.5625L24.3436 21.8896L17.9403 24.6513L19.5244 28.3242ZM25.9277 25.5625L27.0564 29.4L27.1726 29.3658L26.0439 25.5283L24.9153 21.6909L24.7991 21.725L25.9277 25.5625ZM26.0439 25.5283L26.6937 29.4752C26.4028 29.5231 26.1185 29.5324 25.8477 29.5108L26.165 25.5234L26.4824 21.536C26.1305 21.508 25.7647 21.5205 25.3942 21.5814L26.0439 25.5283ZM26.165 25.5234L25.8461 29.5107L29.057 29.7675L29.376 25.7803L29.6949 21.793L26.484 21.5362L26.165 25.5234ZM29.376 25.7803L30.2463 21.8761L25.2521 20.7628L24.3818 24.667L23.5115 28.5712L28.5057 29.6844L29.376 25.7803ZM24.3818 24.667L25.253 20.763C26.6009 21.0638 27.6533 22.1326 27.9239 23.4997L24 24.2764L20.0761 25.053C20.4237 26.8089 21.776 28.1839 23.5106 28.571L24.3818 24.667ZM24 24.2764L27.9245 23.5028C28.193 24.8649 27.6313 26.2566 26.4915 27.0507L24.2051 23.7686L21.9187 20.4864C20.4533 21.5073 19.7303 23.2985 20.0755 25.0499L24 24.2764ZM24.2051 23.7686L26.4914 27.0507C29.2573 25.124 32.599 24 36.2061 24V20V16C30.9051 16 25.9773 17.6592 21.9187 20.4864L24.2051 23.7686ZM36.2061 21V17C31.6186 17 27.324 18.2964 23.6678 20.5399L25.7598 23.9492L27.8517 27.3586C30.2927 25.8608 33.1459 25 36.2061 25V21ZM25.7598 23.9492L24.8896 27.8534L35.7168 30.2665L36.5869 26.3623L37.4571 22.4581L26.6299 20.045L25.7598 23.9492ZM36.5869 26.3623L35.7161 30.2664C33.9233 29.8665 32.7436 28.1481 33.0172 26.3298L36.9727 26.9248L40.9281 27.5199C41.2798 25.1823 39.763 22.9724 37.4577 22.4582L36.5869 26.3623ZM36.9727 26.9248L33.0173 26.3289C33.2914 24.5095 34.9259 23.2155 36.756 23.3613L36.4385 27.3486L36.121 31.336C38.4745 31.5234 40.5757 29.8593 40.928 27.5207L36.9727 26.9248ZM36.4385 27.3486L36.7575 23.3614L26.528 22.543L26.209 26.5303L25.89 30.5175L36.1195 31.3359L36.4385 27.3486ZM26.209 26.5303L24.6252 22.8572L18.4602 25.5154L20.0439 29.1885L21.6277 32.8616L27.7927 30.2034L26.209 26.5303ZM20.0439 29.1885L16.8308 26.8061C13.7961 30.899 12 35.9866 12 41.4844L16 41.4844L20 41.4844C20 37.7522 21.2143 34.3259 23.2571 31.5709L20.0439 29.1885ZM16 41.4844L12 41.4845C12.0002 49.0469 15.4091 56.3224 20.8784 60.8781L23.4385 57.8047L25.9985 54.7312C22.4108 51.7428 20.0001 46.747 20 41.4843L16 41.4844ZM23.4385 57.8047L26.4738 60.4098L27.964 58.6735L24.9287 56.0684L21.8934 53.4632L20.4031 55.1996L23.4385 57.8047ZM24.9287 56.0684L27.7355 58.9183L27.7999 58.8548L24.9932 56.0049L22.1864 53.1549L22.122 53.2184L24.9287 56.0684ZM24.9932 56.0049L27.5103 59.1136C27.0164 59.5135 26.4239 59.7709 25.7961 59.8593L25.2383 55.8984L24.6804 51.9375C23.872 52.0514 23.11 52.3829 22.4761 52.8961L24.9932 56.0049ZM25.2383 55.8984L25.796 59.8594L35.6036 58.4785L35.0459 54.5176L34.4882 50.5566L24.6806 51.9375L25.2383 55.8984ZM35.0459 54.5176L35.6025 58.4787C34.0488 58.697 32.5401 57.855 31.9104 56.4175L35.5742 54.8125L39.2381 53.2075C38.4284 51.3593 36.487 50.2758 34.4893 50.5565L35.0459 54.5176ZM35.5742 54.8125L31.9098 56.4162C31.2797 54.9765 31.6868 53.2977 32.8984 52.3056L35.4326 55.4004L37.9668 58.4952C39.5252 57.2191 40.0484 55.0591 39.2387 53.2088L35.5742 54.8125ZM35.4326 55.4004L32.8991 52.305L26.0027 57.9495L28.5361 61.0449L31.0696 64.1403L37.9661 58.4958L35.4326 55.4004ZM28.5361 61.0449L26.999 64.7378C29.8277 65.9152 32.9214 66.5663 36.1581 66.5664L36.1582 62.5664L36.1583 58.5664C34.0033 58.5664 31.9526 58.1343 30.0733 57.3521L28.5361 61.0449ZM36.1582 62.5664L36.1583 66.5664C49.7073 66.5661 60.5195 55.2867 60.5195 41.5879L56.5195 41.5879L52.5195 41.5879C52.5195 51.0882 45.0723 58.5662 36.1581 58.5664L36.1582 62.5664ZM56.5195 41.5879L60.5195 41.5878C60.5195 40.0574 60.3843 38.5574 60.1262 37.1003L56.1875 37.7979L52.2488 38.4954C52.426 39.4962 52.5195 40.5295 52.5195 41.5879L56.5195 41.5879ZM56.1875 37.7979L54.4571 34.1915L49.7413 36.4542L51.4717 40.0605L53.202 43.6669L57.9179 41.4042L56.1875 37.7979ZM51.4717 40.0605L49.7444 36.4527C50.2937 36.1897 50.8966 36.0767 51.4946 36.1178L51.2207 40.1084L50.9468 44.099C51.717 44.1519 52.4939 44.0059 53.199 43.6684L51.4717 40.0605ZM51.2207 40.1084L51.4945 36.1178L43.3372 35.5582L43.0635 39.5488L42.7897 43.5394L50.947 44.099L51.2207 40.1084ZM43.0635 39.5488L42.0988 35.6669L34.216 37.6259L35.1807 41.5078L36.1454 45.3897L44.0282 43.4308L43.0635 39.5488ZM35.1807 41.5078L34.2191 37.6251C35.936 37.1999 37.7242 38.1251 38.3451 39.8177L34.5898 41.1953L30.8346 42.5729C31.6312 44.7446 33.9301 45.9384 36.1422 45.3905L35.1807 41.5078ZM34.5898 41.1953L38.3456 39.8191C38.9608 41.4979 38.2122 43.3665 36.6136 44.1585L34.8379 40.5742L33.0622 36.99C31.0064 38.0085 30.0433 40.4136 30.8341 42.5716L34.5898 41.1953ZM34.8379 40.5742L36.6104 44.1601L42.6143 41.1923L40.8418 37.6064L39.0693 34.0206L33.0654 36.9884L34.8379 40.5742ZM40.8418 37.6064L43.5094 34.6259C43.4652 34.5863 43.4309 34.5523 43.4055 34.5251C43.38 34.4977 43.3681 34.482 43.3662 34.4794L40.1455 36.8516L36.9248 39.2238C37.3304 39.7744 37.7725 40.2275 38.1742 40.587L40.8418 37.6064ZM40.1455 36.8516L43.3663 34.4796C43.3546 34.4637 43.3871 34.5029 43.4262 34.6028C43.468 34.7097 43.5195 34.8932 43.5195 35.1333L39.5195 35.1338L35.5195 35.1343C35.5198 36.9279 36.2679 38.3317 36.9247 39.2236L40.1455 36.8516ZM39.5195 35.1338L43.5195 35.1338C43.5195 35.3439 43.3401 35.5966 43.017 35.5967L43.0166 31.5967L43.0162 27.5967C38.8184 27.5971 35.5196 31.0295 35.5195 35.1337L39.5195 35.1338ZM43.0166 31.5967L43.0164 35.5967C42.9565 35.5967 42.8653 35.5843 42.7623 35.5425C42.6603 35.5012 42.5795 35.4444 42.5239 35.3908C42.4082 35.2793 42.4681 35.2559 42.4997 35.4811L46.4609 34.9258L50.4222 34.3704C49.9163 30.7621 47.1384 27.5969 43.0168 27.5967L43.0166 31.5967ZM46.4609 34.9258L47.6973 38.7299L55.543 36.1801L54.3066 32.376L53.0703 28.5718L45.2246 31.1216L46.4609 34.9258ZM54.3066 32.376L57.8978 30.6143C53.9525 22.5718 45.7394 17.0002 36.2061 17L36.2061 21L36.206 25C42.5284 25.0001 48.0429 28.6896 50.7155 34.1377L54.3066 32.376Z" fill="#61B361" mask="url(#path-3-inside-1_2_13)"/>
<circle cx="28.7083" cy="34.2681" r="2.5" fill="#61B361" stroke="#61B361"/>
<circle cx="42.7083" cy="47.2681" r="2.5" fill="#61B361" stroke="#61B361"/>
<circle cx="28.7083" cy="47.2681" r="2.5" fill="#61B361" stroke="#61B361"/>
</g>
<defs>
<clipPath id="clip0_2_13">
<rect width="78" height="82" fill="white"/>
</clipPath>
</defs>
</svg>
